# Blender v2.90.0 OBJ File: 'F22_FINAL_PARTS.blend'
# www.blender.org
mtllib f22_rudder.mtl
o Plane.004
v -0.371765 -1.679648 0.000266
v 0.397833 -1.357058 0.080576
v -0.245993 1.315244 -0.001455
v 0.406327 1.635373 0.024367
v -0.256101 1.328956 -0.011780
v -0.386772 -1.673423 -0.007952
v 0.394255 -1.298225 -0.041882
v 0.409513 1.634828 -0.028016
v -0.371765 -1.679648 0.000266
v 0.397833 -1.357058 0.080576
v 0.397833 -1.357058 0.080576
v 0.406327 1.635373 0.024367
v 0.406327 1.635373 0.024367
v -0.245993 1.315244 -0.001455
v -0.256101 1.328956 -0.011780
v -0.256101 1.328956 -0.011780
v -0.386772 -1.673423 -0.007952
v -0.386772 -1.673423 -0.007952
v 0.394255 -1.298225 -0.041882
v 0.394255 -1.298225 -0.041882
v 0.409513 1.634828 -0.028016
v 0.409513 1.634828 -0.028016
vt 0.710451 0.991024
vt 0.731430 0.903821
vt 0.762103 0.905279
vt 0.731540 0.903927
vt 0.711082 0.991751
vt 0.762560 0.904876
vt 1.000000 1.000000
vt 1.000000 0.000000
vt 1.000000 0.000000
vt 0.762720 0.904781
vt 0.710842 0.991107
vt 0.000000 1.000000
vt 1.000000 1.000000
vt 1.000000 1.000000
vt 0.731430 0.903821
vt 0.762720 0.904781
vt 0.762103 0.905279
vt 0.681821 0.991378
vt 0.681412 0.991327
vt 1.000000 1.000000
vt 0.000000 1.000000
vt 0.731460 0.903484
vn 0.4174 -0.0260 -0.9083
vn 0.0989 -0.0067 -0.9951
vn 0.3050 -0.0133 -0.9522
vn 0.0416 -0.0011 0.9991
vn 0.0290 -0.0042 0.9995
vn 0.0437 -0.0006 0.9990
vn -0.9983 0.0054 -0.0584
vn -0.9995 0.0034 0.0300
vn -0.9995 0.0034 0.0308
vn 0.4743 -0.0204 -0.8801
vn 0.6933 -0.0311 -0.7200
vn 0.2176 -0.5153 -0.8289
vn 0.4388 -0.8983 0.0204
vn 0.4391 -0.8977 0.0360
vn -0.3801 0.8268 0.4144
vn -0.3012 0.5239 0.7967
vn -0.2775 0.4509 0.8483
vn 0.0488 -0.0189 -0.9986
vn 0.0266 -0.0049 0.9996
vn -0.9981 0.0055 -0.0607
vn 0.2038 -0.4886 -0.8484
vn -0.3805 0.8292 0.4095
usemtl Material.004
s 1
f 14/1/1 10/2/2 9/3/3
f 19/4/4 15/5/5 17/6/6
f 13/7/7 20/8/8 11/9/9
f 14/1/1 18/10/10 16/11/11
f 3/12/12 8/13/13 4/14/14
f 2/15/15 6/16/16 1/17/17
f 14/1/1 12/18/18 10/2/2
f 19/4/4 21/19/19 15/5/5
f 13/7/7 22/20/20 20/8/8
f 14/1/1 9/3/3 18/10/10
f 3/12/12 5/21/21 8/13/13
f 2/15/15 7/22/22 6/16/16
