# Blender v2.90.0 OBJ File: 'F22_FINAL_PARTS.blend'
# www.blender.org
mtllib f22_flap.mtl
o Plane.002
v -0.511265 -0.946490 -0.005148
v 0.662214 -1.304424 -0.009933
v -0.487583 0.979305 -0.014754
v 0.661574 1.338167 -0.013612
v 0.311182 -1.423779 -0.010655
v -0.487583 0.979255 -0.010432
v -0.511265 -0.946543 -0.000523
v 0.311182 -1.423843 -0.005109
v 0.662214 -1.304800 0.022663
v 0.661574 1.337876 0.011590
v -0.487583 0.979305 -0.014754
v -0.487583 0.979305 -0.014754
v -0.511265 -0.946490 -0.005148
v -0.511265 -0.946490 -0.005148
v 0.311182 -1.423779 -0.010655
v 0.311182 -1.423779 -0.010655
v 0.662214 -1.304424 -0.009933
v 0.662214 -1.304424 -0.009933
v 0.661574 1.338167 -0.013612
v 0.661574 1.338167 -0.013612
v -0.487583 0.979255 -0.010432
v -0.487583 0.979255 -0.010432
v -0.511265 -0.946543 -0.000523
v -0.511265 -0.946543 -0.000523
v 0.311182 -1.423843 -0.005109
v 0.311182 -1.423843 -0.005109
v 0.662214 -1.304800 0.022663
v 0.662214 -1.304800 0.022663
v 0.661574 1.337876 0.011590
v 0.661574 1.337876 0.011590
vt 0.400899 0.666455
vt 0.502509 0.641594
vt 0.503161 0.678483
vt 0.126845 0.676583
vt 0.127931 0.640545
vt 0.229296 0.665851
vt 1.000000 1.000000
vt 0.000000 1.000000
vt 0.000000 1.000000
vt 0.500000 0.000000
vt 1.000000 0.000000
vt 0.500000 0.000000
vt 0.000000 0.000000
vt 0.500000 0.000000
vt 0.000000 0.000000
vt 1.000000 0.000000
vt 1.000000 1.000000
vt 1.000000 1.000000
vt 0.000000 1.000000
vt 0.000000 0.000000
vt 0.000000 1.000000
vt 0.429005 0.696916
vt 0.401101 0.676496
vt 0.229522 0.675172
vt 0.200898 0.695467
vt 1.000000 1.000000
vt 1.000000 0.000000
vt 0.500000 0.000000
vt 1.000000 0.000000
vt 0.000000 0.000000
vn 0.0024 -0.0007 1.0000
vn -0.0014 0.0014 1.0000
vn 0.0003 0.0023 1.0000
vn 0.0199 -0.0045 -0.9998
vn 0.0204 -0.0042 -0.9998
vn 0.0284 0.0269 -0.9992
vn 0.2981 -0.9545 -0.0110
vn -0.3219 0.9467 0.0109
vn 0.5019 0.8648 0.0099
vn -1.0000 -0.0002 0.0000
vn 0.9999 -0.0123 -0.0001
vn 0.0051 0.0033 1.0000
vn 0.0012 -0.0095 0.9999
vn 0.0476 0.0916 -0.9946
vn 0.0214 0.0053 -0.9998
usemtl Material.003
s 1
f 17/1/1 19/2/2 11/3/3
f 21/4/4 29/5/5 27/6/6
f 20/7/7 22/8/7 12/9/7
f 26/10/8 18/11/8 16/12/8
f 24/13/9 5/14/9 14/15/9
f 2/16/10 10/17/10 4/18/10
f 6/19/11 1/20/11 3/21/11
f 11/3/3 13/22/12 17/1/1
f 13/22/12 15/23/13 17/1/1
f 25/24/14 23/25/15 27/6/6
f 23/25/15 21/4/4 27/6/6
f 20/7/7 30/26/7 22/8/7
f 26/10/8 28/27/8 18/11/8
f 24/13/9 8/28/9 5/14/9
f 2/16/10 9/29/10 10/17/10
f 6/19/11 7/30/11 1/20/11
